<svg width="20" height="20" xmlns="http://www.w3.org/2000/svg">
 <style type="text/css">.st0{fill:#333333;}</style>

 <g>
  <title>background</title>
  <rect fill="none" id="canvas_background" height="22" width="22" y="-1" x="-1"/>
 </g>
 <g>
  <title>Layer 1</title>
  <g opacity="0.7" stroke="null" id="XMLID_6_">
   <path stroke="null" d="m2.330783,4.124421l-1.934923,0l0,13.652371c0,1.063821 0.87951,1.950339 1.934923,1.950339l13.54446,0l0,-1.950339l-13.54446,0l0,-13.652371zm15.479382,-3.900677l-11.609537,0c-1.055412,0 -1.934923,0.886518 -1.934923,1.950339l0,11.702032c0,1.063821 0.87951,1.950339 1.934923,1.950339l11.609537,0c1.055412,0 1.934923,-0.886518 1.934923,-1.950339l0,-11.702032c0,-1.063821 -0.87951,-1.950339 -1.934923,-1.950339zm-0.985052,8.758794l-3.869846,0l0,3.900677l-1.934923,0l0,-3.900677l-3.869846,0l0,-1.950339l3.869846,0l0,-3.900677l1.934923,0l0,3.900677l3.869846,0l0,1.950339z" class="st0" id="XMLID_11_"/>
  </g>
 </g>
</svg>